<?xml version="1.0" encoding="utf-8"?>
<!-- Svg Vector Icons : http://www.onlinewebfonts.com/icon -->
<!DOCTYPE svg PUBLIC "-//W3C//DTD SVG 1.1//EN" "http://www.w3.org/Graphics/SVG/1.1/DTD/svg11.dtd">
<svg version="1.1" xmlns="http://www.w3.org/2000/svg" xmlns:xlink="http://www.w3.org/1999/xlink" x="0px" y="0px" viewBox="0 0 1000 1000" enable-background="new 0 0 1000 1000" xml:space="preserve">
<metadata> Svg Vector Icons : http://www.onlinewebfonts.com/icon </metadata>
<g><g transform="translate(0.000000,511.000000) scale(0.100000,-0.100000)"><path d="M2071,2741.9c-38.8-30.6-81.7-40.8-181.7-40.8c-140.9,0-210.3-32.7-241-112.3c-18.4-47-20.4-47-443.1-55.1l-424.7-6.1l-110.3-61.3C392.5,2313.1,210.7,1943.5,125,1369.7c-38.8-261.4-30.6-949.5,12.3-1170.1c30.6-163.4,159.3-533,216.5-624.8c61.3-98,183.8-198.1,273.6-222.6c44.9-12.2,1094.5-20.4,2801.6-20.4h2732.2l65.3,59.2l67.4,59.2V934.8v1484.5l-67.4,59.2l-65.3,59.2H5620c-498.2,0-543.2,2-555.4,36.8c-32.7,93.9-89.8,126.6-226.7,126.6c-100.1,0-142.9,10.2-181.7,40.8c-44.9,34.7-83.7,40.8-241,40.8s-196-6.1-241-40.8c-40.8-32.7-81.7-40.8-192-40.8c-120.5,0-147-6.1-183.8-44.9c-22.5-26.5-47-63.3-53.1-81.7c-12.3-32.7-49-36.8-392.1-36.8s-379.8,4.1-392.1,36.8c-32.7,93.9-89.8,126.6-226.7,126.6c-100.1,0-142.9,10.2-181.7,40.8c-44.9,34.7-83.7,40.8-240.9,40.8C2154.7,2782.8,2115.9,2776.6,2071,2741.9z"/><path d="M6828.8,2088.5c-136.8-53.1-228.7-128.6-294.1-241l-57.2-96V430.4V-892.8H3571.9c-2848.6,0-2903.7,0-2942.5-38.8c-55.1-55.1-67.4-142.9-59.2-418.6c10.2-349.2-28.6-328.8,608.5-330.8l508.5-2.1l22.5,57.2c38.8,89.9,212.4,253.2,332.8,312.4c151.1,75.5,324.7,102.1,473.8,75.5c365.5-67.4,612.6-326.7,663.6-696.3c16.3-118.4,32.7-165.4,73.5-204.2l49-51.1l2021.6-6.1c1778.6-4.1,2029.8,0,2082.8,26.5c77.6,40.8,93.9,75.6,108.2,228.7c14.3,169.5,108.2,367.6,228.7,484c312.4,304.2,804.6,302.2,1112.9-8.2c134.8-132.7,206.2-287.9,222.6-484l12.2-153.2l81.7-28.6c53.1-18.4,175.6-28.6,349.2-28.6c241,0,273.6,4.1,322.6,42.9l55.1,42.9l-8.2,563.6c-6.1,312.4-8.2,575.8-10.2,586.1c0,12.2,4.1,226.7,10.2,479.9C9900-8.7,9898,26.1,9851,209.8c-210.3,818.8-727,1662.2-1139.4,1858.2l-130.7,61.3h-827C6994.2,2127.3,6918.7,2125.2,6828.8,2088.5z M8462.4,1096.1c163.4-173.6,349.2-561.5,422.7-890.3l12.2-57.2h-735.1h-735.1v530.9v530.9h463.5h463.5L8462.4,1096.1z"/><path d="M2287.4-1487c-108.2-20.4-153.1-42.9-255.2-136.8c-104.1-93.9-161.3-208.3-173.6-351.2c-34.7-379.8,322.6-671.8,690.2-565.6c463.5,134.8,528.9,786.2,100.1,998.5C2522.3-1480.9,2414.1-1464.6,2287.4-1487z"/><path d="M8201.1-1487c-114.4-16.4-161.3-40.8-267.5-136.8c-104.1-93.9-161.3-208.3-173.6-351.2c-34.7-379.8,322.6-671.8,690.2-565.6c445.2,130.7,528.9,751.4,130.7,984.2C8476.7-1493.2,8331.7-1468.7,8201.1-1487z"/></g></g>
</svg>