<?xml version="1.0" encoding="utf-8"?>
<!-- Svg Vector Icons : http://www.onlinewebfonts.com/icon -->
<!DOCTYPE svg PUBLIC "-//W3C//DTD SVG 1.1//EN" "http://www.w3.org/Graphics/SVG/1.1/DTD/svg11.dtd">
<svg version="1.1" xmlns="http://www.w3.org/2000/svg" xmlns:xlink="http://www.w3.org/1999/xlink" x="0px" y="0px" viewBox="0 0 1000 1000" enable-background="new 0 0 1000 1000" xml:space="preserve">
<metadata> Svg Vector Icons : http://www.onlinewebfonts.com/icon </metadata>
<g><g transform="translate(0.000000,511.000000) scale(0.100000,-0.100000)"><path d="M6349.4,3356.8c-32.5-13.4-68.9-40.2-84.2-57.4c-15.3-17.2-63.2-189.5-105.3-380.9l-80.4-348.4l-2934.3-9.6L211,2551l-55.5-63.2l-55.5-61.3V529.7c0-2057.6-3.8-1973.4,105.3-2023.2c34.4-15.3,218.2-23,620.2-23c534,0,574.2,1.9,618.2,36.3c24.9,21.1,126.3,158.9,223.9,306.3l179.9,269.9h857.5h855.6l7.7-250.8l5.7-250.7l63.2-55.5l61.3-55.5h890h890l57.4,53.6c55.5,49.8,68.9,99.5,547.4,2205C6351.3,1927,6575.3,2910.8,6581,2928c9.6,28.7,57.4,32.5,478.5,38.3l470.9,5.7l55.5,63.2c80.4,88,78.5,204.8-3.8,283.3l-57.4,55.5l-558.9,3.8C6535.1,3381.7,6393.4,3377.8,6349.4,3356.8z M5968.5,2097.3c-5.7-34.4-172.3-771.4-369.4-1636.5l-357.9-1575.3h-627.8h-627.8v197.1c0,248.8-23,329.2-101.4,377.1c-59.3,36.4-105.3,38.3-1127.4,38.3c-756.1,0-1079.5-5.7-1114-21.1c-28.7-13.4-122.5-134-235.4-306.3l-187.6-285.2H861.8H502V508.7c0,893.9,5.7,1630.8,13.4,1636.5c5.7,7.7,1238.4,13.4,2739,13.4H5980L5968.5,2097.3z"/><path d="M6914.1,2508.9c-59.3-53.6-65.1-80.4-478.5-1938.9c-457.5-2050-442.1-1960-331.1-2048.1c45.9-34.4,76.6-38.3,421.1-38.3c216.3,0,386.6,7.6,407.7,19.1c21,11.5,124.4,149.3,231.6,306.2l193.3,287.1l757.9-3.8l759.9-5.7l3.8-220.1c7.6-277.5,11.5-298.6,88-344.5c55.5-34.4,97.6-38.3,432.6-38.3h369.4l65.1,65.1l65.1,65.1V522.1v1908.3l-65.1,65.1l-65.1,65.1H8370.7H6971.5L6914.1,2508.9z M9488.5,522.1v-1627l-99.5-5.7l-101.4-5.8v241.2v243.1l-65.1,65.1l-65.1,65.1h-983.8c-748.4-1.9-991.5-7.7-1025.9-24.9c-23-13.4-126.3-149.3-229.7-300.5l-185.7-277.5l-118.7-5.7c-107.2-5.8-120.6-1.9-120.6,28.7c0,44,702.5,3198.4,717.8,3223.3c7.7,11.5,438.3,15.3,1144.6,13.4l1133.1-5.7V522.1z"/><path d="M7524.7,1894.4l-61.3-53.6l-111-668c-61.3-367.5-107.2-689.1-101.5-712c7.7-24.9,38.3-65.1,68.9-91.9l57.4-47.9h878.5c955.1,0,960.9,0,1008.7,105.3c17.2,34.5,23,241.2,23,719.7v671.8l-65.1,65.1l-65.1,65.1h-786.7H7584L7524.7,1894.4z M8881.7,1130.7l3.8-407.7h-593.4c-417.3,0-593.4,5.7-593.4,21.1c0,24.9,111,694.8,124.4,759.9l9.6,42.1l522.5-3.8l520.6-5.7L8881.7,1130.7z"/><path d="M2326.1-1143.2c-338.8-91.9-652.7-388.5-752.2-713.9c-107.2-344.5-3.8-715.9,277.5-991.5c164.6-162.7,319.7-245,541.7-289c145.5-28.7,170.4-28.7,313.9,0c572.3,112.9,960.9,679.5,836.4,1219.3c-36.4,158.9-132.1,323.5-268,468.9C3011.3-1171.9,2651.5-1057,2326.1-1143.2z M2687.8-1537.5c197.1-42.1,338.8-153.1,421.1-333c59.3-130.2,61.2-398.1,3.8-528.3c-55.5-120.6-149.3-222-264.1-281.4c-88-45.9-116.8-51.7-298.6-51.7s-210.5,5.7-298.6,51.7c-112.9,59.3-206.7,160.8-264.1,281.4c-61.3,135.9-57.4,396.2,9.6,537.9c82.3,176.1,199.1,269.9,390.5,317.7C2511.7-1512.6,2563.4-1512.6,2687.8-1537.5z"/><path d="M7836.6-1145.1c-338.8-89.9-650.8-384.7-750.3-712c-107.2-344.5-3.8-715.9,275.6-989.6c164.6-160.8,325.4-248.8,543.6-290.9c145.5-28.7,168.4-28.7,313.9,0c572.3,112.9,960.9,679.5,836.4,1219.3c-36.4,158.9-132.1,323.5-268,468.9C8523.8-1171.9,8163.9-1057,7836.6-1145.1z M8340-1581.5c124.4-57.4,214.4-149.3,275.6-279.4c67-141.7,70.8-402,9.6-537.9c-57.4-120.6-151.2-222-264.2-281.4c-88-45.9-116.7-51.7-298.6-51.7s-210.5,5.7-298.6,51.7c-112.9,59.3-206.7,160.8-264.2,281.4c-61.2,135.9-57.4,396.2,9.6,537.9c80.4,174.2,222,287.1,405.8,325.4C8035.7-1510.7,8230.9-1531.7,8340-1581.5z"/></g></g>
</svg>